name analog
datacolumns 19
datarows 64
range 0.0 0.0315
endheader
time	ground_force_vx	ground_force_vy	ground_force_vz	ground_force_px	ground_force_py	ground_force_pz	l_ground_force_vx	l_ground_force_vy	l_ground_force_vz	l_ground_force_px	l_ground_force_py	l_ground_force_pz	ground_torque_x	ground_torque_y	ground_torque_z	l_ground_torque_x	l_ground_torque_y	l_ground_torque_z
0.0	-0.0	-0.0	-0.0	-0.0	-0.0	-0.0	1.0717345476150513	0.141449436545372	-724.3362426757812	-0.0	-0.0	-0.0	-0.0	-0.0	-0.0	202459.140625	10884.0361328125	-1540.5272216796875
0.0005	-0.0	-0.0	-0.0	-0.0	-0.0	-0.0	1.6800395250320437	1.4077229499816897	-725.13916015625	-0.0	-0.0	-0.0	-0.0	-0.0	-0.0	203283.328125	10289.6982421875	-1411.9256591796875
0.001	-0.0	-0.0	-0.0	-0.0	-0.0	-0.0	2.645049571990967	3.447863817214966	-726.5780029296875	-0.0	-0.0	-0.0	-0.0	-0.0	-0.0	204416.890625	9359.322265625	-1309.5902099609375
0.0015	-0.0	-0.0	-0.0	-0.0	-0.0	-0.0	3.7406201362609854	5.417116165161133	-729.7332153320312	-0.0	-0.0	-0.0	-0.0	-0.0	-0.0	205785.265625	8679.0517578125	-1098.46533203125
0.002	-0.0	-0.0	-0.0	-0.0	-0.0	-0.0	4.606707572937012	7.504230499267578	-733.0130615234375	-0.0	-0.0	-0.0	-0.0	-0.0	-0.0	207598.28125	7561.88916015625	-986.9947509765624
0.0025	-0.0	-0.0	-0.0	-0.0	-0.0	-0.0	5.778429985046387	10.063983917236328	-736.2584228515625	-0.0	-0.0	-0.0	-0.0	-0.0	-0.0	209192.53125	7046.3876953125	-745.9373779296875
0.003	-0.0	-0.0	-0.0	-0.0	-0.0	-0.0	6.541713714599609	12.325202941894531	-740.905517578125	-0.0	-0.0	-0.0	-0.0	-0.0	-0.0	210986.359375	6381.20751953125	-563.4786987304688
0.0035	-0.0	-0.0	-0.0	-0.0	-0.0	-0.0	7.410032749176025	14.556386947631836	-744.716552734375	-0.0	-0.0	-0.0	-0.0	-0.0	-0.0	212979.171875	5855.55322265625	-347.9140930175781
0.004	-0.0	-0.0	-0.0	-0.0	-0.0	-0.0	8.207074165344238	16.433116912841797	-749.1100463867188	-0.0	-0.0	-0.0	-0.0	-0.0	-0.0	214477.90625	5387.73681640625	-91.59537506103516
0.0045000000000000005	-0.0	-0.0	-0.0	-0.0	-0.0	-0.0	8.992109298706055	17.78795623779297	-753.10986328125	-0.0	-0.0	-0.0	-0.0	-0.0	-0.0	216518.34375	4644.65625	57.5050163269043
0.005	-0.0	-0.0	-0.0	-0.0	-0.0	-0.0	9.360162734985352	18.879472732543945	-758.3955688476562	-0.0	-0.0	-0.0	-0.0	-0.0	-0.0	218326.15625	4344.3486328125	243.2030487060547
0.0055	-0.0	-0.0	-0.0	-0.0	-0.0	-0.0	9.992504119873049	19.342432022094727	-763.4808349609375	-0.0	-0.0	-0.0	-0.0	-0.0	-0.0	220191.609375	4020.92236328125	393.4643859863281
0.006	-0.0	-0.0	-0.0	-0.0	-0.0	-0.0	10.203917503356934	19.61174964904785	-769.5216064453125	-0.0	-0.0	-0.0	-0.0	-0.0	-0.0	221884.359375	3723.620361328125	590.3231201171875
0.006500000000000001	-0.0	-0.0	-0.0	-0.0	-0.0	-0.0	10.456014633178713	19.398414611816406	-775.945068359375	-0.0	-0.0	-0.0	-0.0	-0.0	-0.0	223714.546875	3618.651611328125	756.9172973632812
0.007	-0.0	-0.0	-0.0	-0.0	-0.0	-0.0	10.602773666381836	18.96571159362793	-780.1753540039062	-0.0	-0.0	-0.0	-0.0	-0.0	-0.0	225135.171875	3704.82861328125	901.0298461914062
0.0075	-0.0	-0.0	-0.0	-0.0	-0.0	-0.0	10.112666130065918	18.5020694732666	-784.663818359375	-0.0	-0.0	-0.0	-0.0	-0.0	-0.0	226314.21875	3586.93505859375	1047.3262939453125
0.008	-0.0	-0.0	-0.0	-0.0	-0.0	-0.0	9.801687240600586	17.57601547241211	-787.3502807617188	-0.0	-0.0	-0.0	-0.0	-0.0	-0.0	227642.421875	3884.39990234375	1065.365966796875
0.0085	-0.0	-0.0	-0.0	-0.0	-0.0	-0.0	9.31184196472168	16.16484832763672	-790.3826293945312	-0.0	-0.0	-0.0	-0.0	-0.0	-0.0	228319.84375	3944.199462890625	1187.2860107421875
0.009000000000000001	-0.0	-0.0	-0.0	-0.0	-0.0	-0.0	8.584657669067383	15.012518882751465	-793.5384521484375	-0.0	-0.0	-0.0	-0.0	-0.0	-0.0	228699.578125	4399.40234375	1173.900146484375
0.0095	-0.0	-0.0	-0.0	-0.0	-0.0	-0.0	7.350099086761475	13.435728073120115	-793.1553344726562	-0.0	-0.0	-0.0	-0.0	-0.0	-0.0	228851.921875	4846.17431640625	1116.3758544921875
0.01	-0.0	-0.0	-0.0	-0.0	-0.0	-0.0	6.475887298583984	11.702028274536133	-793.4588623046875	-0.0	-0.0	-0.0	-0.0	-0.0	-0.0	228634.09375	5329.75048828125	1162.8775634765625
0.0105	-0.0	-0.0	-0.0	-0.0	-0.0	-0.0	5.954023838043213	9.625948905944824	-791.9189453125	-0.0	-0.0	-0.0	-0.0	-0.0	-0.0	228086.15625	5803.42333984375	917.912841796875
0.011	-0.0	-0.0	-0.0	-0.0	-0.0	-0.0	4.900514602661133	7.92611837387085	-790.826416015625	-0.0	-0.0	-0.0	-0.0	-0.0	-0.0	227321.0625	6318.18701171875	761.7486572265625
0.0115	-0.0	-0.0	-0.0	-0.0	-0.0	-0.0	3.750138998031616	6.458401679992676	-788.819091796875	-0.0	-0.0	-0.0	-0.0	-0.0	-0.0	226493.984375	6806.76904296875	649.7294921875
0.012	-0.0	-0.0	-0.0	-0.0	-0.0	-0.0	2.5301644802093506	4.9014739990234375	-784.0184326171875	-0.0	-0.0	-0.0	-0.0	-0.0	-0.0	225370.0625	7378.8876953125	448.5151672363281
0.0125	-0.0	-0.0	-0.0	-0.0	-0.0	-0.0	1.86360502243042	3.986363887786865	-782.0989990234375	-0.0	-0.0	-0.0	-0.0	-0.0	-0.0	224306.609375	7966.92041015625	380.28167724609375
0.013000000000000001	-0.0	-0.0	-0.0	-0.0	-0.0	-0.0	1.1964163780212402	3.0911130905151367	-779.3909301757812	-0.0	-0.0	-0.0	-0.0	-0.0	-0.0	223520.671875	8320.8798828125	276.0145874023437
0.0135	-0.0	-0.0	-0.0	-0.0	-0.0	-0.0	0.9311477541923524	2.164170265197754	-776.4222412109375	-0.0	-0.0	-0.0	-0.0	-0.0	-0.0	222414.96875	8763.767578125	294.00787353515625
0.014	-0.0	-0.0	-0.0	-0.0	-0.0	-0.0	0.3103846907615661	1.8111076354980469	-772.6724853515625	-0.0	-0.0	-0.0	-0.0	-0.0	-0.0	221441.859375	8939.525390625	60.0777702331543
0.0145	-0.0	-0.0	-0.0	-0.0	-0.0	-0.0	-0.2214631587266922	1.324628472328186	-770.7509765625	-0.0	-0.0	-0.0	-0.0	-0.0	-0.0	220427.3125	9134.6484375	167.012939453125
0.015	-0.0	-0.0	-0.0	-0.0	-0.0	-0.0	-0.5544701814651489	1.5234770774841309	-767.2601318359375	-0.0	-0.0	-0.0	-0.0	-0.0	-0.0	219489.71875	9500.98046875	133.474609375
0.0155	-0.0	-0.0	-0.0	-0.0	-0.0	-0.0	-0.8869518637657166	1.7221760749816897	-764.29248046875	-0.0	-0.0	-0.0	-0.0	-0.0	-0.0	218651.640625	9714.357421875	22.07428932189941
0.016	-0.0	-0.0	-0.0	-0.0	-0.0	-0.0	-0.8426638245582581	1.8986515998840328	-761.32470703125	-0.0	-0.0	-0.0	-0.0	-0.0	-0.0	217897.09375	10007.0302734375	-14.860164642333984
0.0165	-0.0	-0.0	-0.0	-0.0	-0.0	-0.0	-0.8987683057785034	1.8876919746398928	-758.0947875976562	-0.0	-0.0	-0.0	-0.0	-0.0	-0.0	216946.359375	10249.8681640625	-96.6679229736328
0.017	-0.0	-0.0	-0.0	-0.0	-0.0	-0.0	-0.7758612632751465	1.7886011600494385	-756.4352416992188	-0.0	-0.0	-0.0	-0.0	-0.0	-0.0	216315.09375	10372.849609375	-89.18009948730469
0.0175	-0.0	-0.0	-0.0	-0.0	-0.0	-0.0	-0.6867401003837585	1.8551466464996336	-753.8628540039062	-0.0	-0.0	-0.0	-0.0	-0.0	-0.0	215526.15625	10449.9013671875	-81.58747100830078
0.018000000000000002	-0.0	-0.0	-0.0	-0.0	-0.0	-0.0	-0.4442055225372314	1.8541066646575928	-751.3717041015625	-0.0	-0.0	-0.0	-0.0	-0.0	-0.0	214824.734375	10754.0576171875	-74.98558044433594
0.0185	-0.0	-0.0	-0.0	-0.0	-0.0	-0.0	-0.3658715784549713	2.076662540435791	-749.3668212890625	-0.0	-0.0	-0.0	-0.0	-0.0	-0.0	214372.96875	10932.19140625	-33.02817916870117
0.019	-0.0	-0.0	-0.0	-0.0	-0.0	-0.0	-0.1998045295476913	2.20804214477539	-747.1878662109375	-0.0	-0.0	-0.0	-0.0	-0.0	-0.0	213827.375	10998.4873046875	-37.335567474365234
0.0195	-0.0	-0.0	-0.0	-0.0	-0.0	-0.0	-0.3979159593582153	2.174533605575561	-747.6259155273438	-0.0	-0.0	-0.0	-0.0	-0.0	-0.0	213638.6875	10979.3798828125	-96.1067886352539
0.02	-0.0	-0.0	-0.0	-0.0	-0.0	-0.0	-0.1785473525524139	2.384685516357422	-747.0076904296875	-0.0	-0.0	-0.0	-0.0	-0.0	-0.0	213536.1875	11202.396484375	-178.25840759277344
0.0205	-0.0	-0.0	-0.0	-0.0	-0.0	-0.0	0.3438993990421295	2.475526094436645	-747.3135375976562	-0.0	-0.0	-0.0	-0.0	-0.0	-0.0	213482.421875	11166.71875	-39.546016693115234
0.021	-0.0	-0.0	-0.0	-0.0	-0.0	-0.0	0.4654386043548584	2.782006025314331	-747.018310546875	-0.0	-0.0	-0.0	-0.0	-0.0	-0.0	213515.296875	11283.447265625	-35.69509506225586
0.021500000000000002	-0.0	-0.0	-0.0	-0.0	-0.0	-0.0	0.8190953731536865	2.593188762664795	-746.6976928710938	-0.0	-0.0	-0.0	-0.0	-0.0	-0.0	213374.390625	11215.6748046875	-31.457149505615234
0.022	-0.0	-0.0	-0.0	-0.0	-0.0	-0.0	0.7999983429908752	2.606286764144897	-746.3273315429688	-0.0	-0.0	-0.0	-0.0	-0.0	-0.0	213455.25	11606.9990234375	89.15217590332031
0.0225	-0.0	-0.0	-0.0	-0.0	-0.0	-0.0	1.1262236833572388	3.1020681858062744	-747.016845703125	-0.0	-0.0	-0.0	-0.0	-0.0	-0.0	213616.21875	11493.2236328125	-50.16800308227539
0.023	-0.0	-0.0	-0.0	-0.0	-0.0	-0.0	1.2202595472335815	3.5319323539733887	-747.440673828125	-0.0	-0.0	-0.0	-0.0	-0.0	-0.0	213686.140625	11657.21875	-124.15575408935548
0.0235	-0.0	-0.0	-0.0	-0.0	-0.0	-0.0	1.1847001314163208	3.8954434394836426	-747.6192016601562	-0.0	-0.0	-0.0	-0.0	-0.0	-0.0	213706.09375	11749.9140625	-109.7419204711914
0.024	-0.0	-0.0	-0.0	-0.0	-0.0	-0.0	1.326432466506958	3.569659471511841	-748.2568969726562	-0.0	-0.0	-0.0	-0.0	-0.0	-0.0	213937.203125	11780.1171875	-100.91339111328124
0.0245	-0.0	-0.0	-0.0	-0.0	-0.0	-0.0	1.2726949453353882	3.885016441345215	-749.57275390625	-0.0	-0.0	-0.0	-0.0	-0.0	-0.0	214139.375	12029.802734375	-198.5313873291016
0.025	-0.0	-0.0	-0.0	-0.0	-0.0	-0.0	1.2647318840026855	3.930442333221436	-749.637939453125	-0.0	-0.0	-0.0	-0.0	-0.0	-0.0	214279.96875	12234.2529296875	-213.3468475341797
0.025500000000000002	-0.0	-0.0	-0.0	-0.0	-0.0	-0.0	1.2210111618041992	3.771361112594605	-750.042724609375	-0.0	-0.0	-0.0	-0.0	-0.0	-0.0	214178.03125	12167.9375	-218.72337341308597
0.026000000000000002	-0.0	-0.0	-0.0	-0.0	-0.0	-0.0	1.1075727939605713	4.012105464935303	-751.723388671875	-0.0	-0.0	-0.0	-0.0	-0.0	-0.0	214472.40625	12380.23046875	-296.5885314941406
0.0265	-0.0	-0.0	-0.0	-0.0	-0.0	-0.0	1.252056360244751	3.9852213859558105	-751.1493530273438	-0.0	-0.0	-0.0	-0.0	-0.0	-0.0	214350.484375	12291.662109375	-355.61114501953125
0.027	-0.0	-0.0	-0.0	-0.0	-0.0	-0.0	0.8184771537780762	4.129711627960205	-752.4844970703125	-0.0	-0.0	-0.0	-0.0	-0.0	-0.0	214448.359375	12497.5234375	-495.0
0.0275	-0.0	-0.0	-0.0	-0.0	-0.0	-0.0	0.9215189218521118	4.011615753173828	-752.6781005859375	-0.0	-0.0	-0.0	-0.0	-0.0	-0.0	214563.140625	12596.72265625	-479.6488952636719
0.028	-0.0	-0.0	-0.0	-0.0	-0.0	-0.0	0.7126975655555725	4.410088062286377	-753.4573364257812	-0.0	-0.0	-0.0	-0.0	-0.0	-0.0	214447.15625	12657.46875	-484.3053283691406
0.0285	-0.0	-0.0	-0.0	-0.0	-0.0	-0.0	0.553663432598114	4.477603435516357	-752.95166015625	-0.0	-0.0	-0.0	-0.0	-0.0	-0.0	214697.484375	12515.703125	-451.63275146484375
0.029	-0.0	-0.0	-0.0	-0.0	-0.0	-0.0	0.5305764675140381	4.345911026000977	-755.040283203125	-0.0	-0.0	-0.0	-0.0	-0.0	-0.0	214606.515625	12495.458984375	-495.1145629882813
0.029500000000000002	-0.0	-0.0	-0.0	-0.0	-0.0	-0.0	0.5766371488571167	4.017795085906982	-755.703369140625	-0.0	-0.0	-0.0	-0.0	-0.0	-0.0	214595.296875	12363.9833984375	-517.1305541992188
0.03	-0.0	-0.0	-0.0	-0.0	-0.0	-0.0	0.7983970642089844	3.6670851707458496	-756.779296875	-0.0	-0.0	-0.0	-0.0	-0.0	-0.0	214566.296875	12252.36328125	-444.62689208984375
0.0305	-0.0	-0.0	-0.0	-0.0	-0.0	-0.0	1.1053283214569092	3.278529644012451	-756.210205078125	-0.0	-0.0	-0.0	-0.0	-0.0	-0.0	214583.546875	12462.365234375	-485.4577026367188
0.031	-0.0	-0.0	-0.0	-0.0	-0.0	-0.0	1.1069999933242798	2.8685667514801025	-757.0293579101562	-0.0	-0.0	-0.0	-0.0	-0.0	-0.0	214425.953125	12323.021484375	-472.4939880371094
0.0315	-0.0	-0.0	-0.0	-0.0	-0.0	-0.0	0.9035223722457886	2.3953070640563965	-757.234619140625	-0.0	-0.0	-0.0	-0.0	-0.0	-0.0	214267.234375	12263.087890625	-461.4346618652344
